Coordinates
version=1
nRows=14
nColumns=24
inDegrees=yes

Units are S.I. units (second, meters, Newtons, ...)
Angles are in degrees.

endheader
time	pelvis_tilt	pelvis_list	pelvis_rotation	pelvis_tx	pelvis_ty	pelvis_tz	hip_flexion_r	hip_adduction_r	hip_rotation_r	knee_angle_r	ankle_angle_r	subtalar_angle_r	mtp_angle_r	hip_flexion_l	hip_adduction_l	hip_rotation_l	knee_angle_l	ankle_angle_l	subtalar_angle_l	mtp_angle_l	lumbar_extension	lumbar_bending	lumbar_rotation
      5.59500000	     -2.84336982	      7.55844906	     -5.22661108	      1.76538806	      1.01770890	     -0.27451675	      7.10321800	    -12.17363433	     -5.12185921	    -58.85197479	    -15.93773844	      1.47079914	      0.00000000	     18.38735653	      9.75369659	     -5.88930784	    -17.67180846	      9.39688369	     -7.71118524	      0.00000000	     -8.83150597	     -9.75799462	      2.09812104
      5.60000000	     -2.76646497	      7.77623536	     -5.29677410	      1.77153276	      1.01819382	     -0.27482931	      7.85448196	    -12.42372566	     -4.95005908	    -59.89672888	    -15.45409905	      1.13849370	      0.00000000	     17.83563558	     10.06691294	     -5.82960255	    -17.41749455	      9.62649676	     -7.81878694	      0.00000000	     -8.88788956	     -9.99907463	      1.95503862
      5.60500000	     -2.68034223	      7.96400999	     -5.36014065	      1.77767780	      1.01871826	     -0.27517280	      8.57895838	    -12.63098166	     -4.77825991	    -60.87154737	    -14.71190513	      0.93668742	      0.00000000	     17.25019080	     10.36384095	     -5.70744724	    -17.12405964	      9.82478307	     -7.98983478	      0.00000000	     -8.95013316	    -10.19887997	      1.82041386
      5.61000000	     -2.58665685	      8.12091192	     -5.38365503	      1.78379383	      1.01930719	     -0.27549873	      9.26446672	    -12.78564926	     -4.63989068	    -61.76204312	    -13.77699214	      0.77026309	      0.00000000	     16.64300990	     10.63656680	     -5.54612262	    -16.81688368	      9.99480863	     -8.13254934	      0.00000000	     -9.03228481	    -10.36049753	      1.62573451
      5.61500000	     -2.48328518	      8.23880221	     -5.41787433	      1.78992176	      1.01994615	     -0.27585900	      9.92640071	    -12.89519059	     -4.50215503	    -62.57621555	    -12.67701772	      0.69934689	      0.00000000	     15.98941057	     10.88356522	     -5.29832174	    -16.44776922	     10.11648850	     -8.39055679	      0.00000000	     -9.11594610	    -10.46880923	      1.46104843
      5.62000000	     -2.37899816	      8.32690223	     -5.41829603	      1.79601914	      1.02062200	     -0.27623654	     10.56224648	    -12.96880452	     -4.41571282	    -63.31349838	    -11.45204688	      0.64973716	      0.00000000	     15.32605158	     11.10578215	     -5.02413556	    -16.07267729	     10.21707780	     -8.63703340	      0.00000000	     -9.21014993	    -10.53891288	      1.25803115
      5.62500000	     -2.28821130	      8.38069469	     -5.38065960	      1.80206471	      1.02130497	     -0.27663946	     11.18845004	    -13.00445873	     -4.38311163	    -63.97931668	    -10.11886103	      0.63623002	      0.00000000	     14.67890770	     11.29271432	     -4.75776136	    -15.71263366	     10.33272626	     -8.83019455	      0.00000000	     -9.30115343	    -10.56265580	      1.02061002
      5.63000000	     -2.17627852	      8.41911925	     -5.36207342	      1.80815271	      1.02205932	     -0.27705406	     11.78009341	    -13.02082383	     -4.35089516	    -64.56310688	     -8.74512650	      0.61454487	      0.00000000	     13.96193756	     11.47797682	     -4.35865244	    -15.26541137	     10.32933191	     -9.19724245	      0.00000000	     -9.40000033	    -10.56618471	      0.81302223
      5.63500000	     -2.08347389	      8.41377407	     -5.29842501	      1.81418658	      1.02281663	     -0.27748392	     12.36128612	    -12.98779563	     -4.37432570	    -65.07303025	     -7.30134604	      0.62644320	      0.00000000	     13.27708428	     11.61054568	     -4.00140743	    -14.85715637	     10.36043337	     -9.46025180	      0.00000000	     -9.49182093	    -10.51477939	      0.57843821
      5.64000000	     -1.98519502	      8.39403162	     -5.23595559	      1.82022845	      1.02358658	     -0.27793813	     12.92683319	    -12.93921913	     -4.41117712	    -65.51396976	     -5.86723653	      0.62289141	      0.00000000	     12.56248857	     11.73231369	     -3.58276518	    -14.40859757	     10.36872089	     -9.78279938	      0.00000000	     -9.58277116	    -10.43852096	      0.33284711
      5.64500000	     -1.89628934	      8.34343043	     -5.15244541	      1.82624534	      1.02437094	     -0.27839780	     13.47963225	    -12.85311545	     -4.47741783	    -65.88077718	     -4.42768936	      0.62073014	      0.00000000	     11.85655127	     11.81603195	     -3.17136915	    -13.96721872	     10.36568714	    -10.07294358	      0.00000000	     -9.66796424	    -10.32576373	      0.08716679
      5.65000000	     -1.82575867	      8.25931328	     -5.05095526	      1.83223972	      1.02515621	     -0.27885538	     14.02967010	    -12.72518060	     -4.56902147	    -66.17252746	     -3.00248572	      0.62071024	      0.00000000	     11.17286596	     11.85511406	     -2.80199068	    -13.53845382	     10.36281821	    -10.31351469	      0.00000000	     -9.73359967	    -10.17038792	     -0.15137079
      5.65500000	     -1.73236477	      8.18080309	     -4.95093803	      1.83823195	      1.02594832	     -0.27934288	     14.55230103	    -12.60545917	     -4.66893271	    -66.40571859	     -1.65167670	      0.57542859	      0.00000000	     10.43912269	     11.90620923	     -2.32094698	    -13.06280229	     10.31886622	    -10.64280910	      0.00000000	     -9.82409307	    -10.01979205	     -0.40829125
      5.66000000	     -1.66667779	      8.06137742	     -4.83062578	      1.84420072	      1.02673935	     -0.27981046	     15.07626110	    -12.43266526	     -4.79329752	    -66.55786799	     -0.33584425	      0.54206393	      0.00000000	      9.74666092	     11.89847477	     -1.93890580	    -12.61553350	     10.28892262	    -10.87326473	      0.00000000	     -9.88379770	     -9.81900648	     -0.64986658
